<svg width="872" height="285" viewBox="0 0 872 285" fill="none" xmlns="http://www.w3.org/2000/svg">
<rect y="4" width="242" height="281" rx="6" fill="#242D7E"/>
<path d="M22 20H220V47H22V20Z" fill="white"/>
<rect x="22" y="84" width="18" height="17" rx="6" fill="white"/>
<rect x="22" y="116" width="18" height="17" rx="6" fill="white"/>
<rect x="22" y="148" width="18" height="17" rx="6" fill="white"/>
<rect x="22" y="180" width="18" height="17" rx="6" fill="white"/>
<rect x="55" y="84" width="18" height="17" rx="6" fill="white"/>
<rect x="55" y="116" width="18" height="17" rx="6" fill="white"/>
<rect x="55" y="148" width="18" height="17" rx="6" fill="white"/>
<rect x="55" y="180" width="18" height="17" rx="6" fill="white"/>
<rect x="55" y="212" width="18" height="17" rx="6" fill="white"/>
<rect x="88" y="84" width="18" height="17" rx="6" fill="white"/>
<rect x="88" y="116" width="18" height="17" rx="6" fill="white"/>
<rect x="88" y="148" width="18" height="17" rx="6" fill="white"/>
<rect x="88" y="180" width="18" height="17" rx="6" fill="white"/>
<rect x="88" y="212" width="18" height="17" rx="6" fill="white"/>
<rect x="121" y="84" width="18" height="17" rx="6" fill="white"/>
<rect x="121" y="116" width="18" height="17" rx="6" fill="white"/>
<rect x="121" y="148" width="18" height="17" rx="6" fill="white"/>
<rect x="121" y="180" width="18" height="17" rx="6" fill="white"/>
<rect x="178" y="101" width="26" height="96" rx="6" fill="white"/>
<path d="M248.986 184C246.515 184 245.873 182.432 247.062 179.295L282.563 86.1201C283.657 83.221 285.225 81.7715 287.269 81.7715H297.249C299.293 81.7715 300.861 83.221 301.954 86.1201L337.456 179.295C338.644 182.432 338.003 184 335.531 184H328.26C325.741 184 324.03 182.836 323.127 180.507L314.216 156.91H270.302L261.391 180.507C260.488 182.836 258.777 184 256.258 184H248.986ZM274.793 145.219H309.725L298.817 116.703C297.819 114.042 296.821 111.095 295.823 107.863C294.873 104.632 293.732 100.045 292.401 94.1045H292.116C290.785 100.045 289.621 104.632 288.623 107.863C287.673 111.095 286.698 114.042 285.7 116.703L274.793 145.219ZM352.284 184C350.146 184 349.076 182.931 349.076 180.792V112.354C349.076 110.216 350.146 109.146 352.284 109.146H358.272C360.411 109.146 361.48 110.216 361.48 112.354V118.058H361.766C364.855 114.636 368.182 112.093 371.746 110.43C375.311 108.766 379.754 107.935 385.077 107.935C393.727 107.935 399.929 110.382 403.684 115.277C407.486 120.125 409.387 126.779 409.387 135.238V180.792C409.387 182.931 408.317 184 406.179 184H400.048C397.909 184 396.84 182.931 396.84 180.792V138.66C396.84 129.345 395.295 123.452 392.206 120.98C389.117 118.462 385.196 117.202 380.443 117.202C374.265 117.202 369.584 119.056 366.399 122.763C363.215 126.422 361.623 132.719 361.623 141.654V180.792C361.623 182.931 360.554 184 358.415 184H352.284ZM425.427 164.039C425.427 155.579 429.371 149.377 437.261 145.433C445.198 141.488 457.032 139.183 472.763 138.518V133.67C472.763 129.202 471.741 125.353 469.697 122.121C467.701 118.842 463.709 117.202 457.721 117.202C453.919 117.202 450.877 117.582 448.596 118.343C446.314 119.056 444.223 120.03 442.322 121.266C440.469 122.454 438.687 123.998 436.976 125.899C435.692 127.325 434.48 127.396 433.34 126.113L429.633 121.836C428.587 120.648 428.944 119.222 430.702 117.559C433.221 115.182 435.669 113.4 438.045 112.212C440.421 111.024 443.368 110.026 446.885 109.218C450.449 108.362 454.061 107.935 457.721 107.935C467.654 107.935 474.735 110.501 478.965 115.634C483.195 120.719 485.31 127.705 485.31 136.593V180.792C485.31 182.931 484.24 184 482.102 184H475.686C473.832 184 472.905 182.931 472.905 180.792V177.299H472.763C469.008 180.245 465.325 182.313 461.713 183.501C458.148 184.642 454.156 185.212 449.736 185.212C441.942 185.212 435.93 183.358 431.7 179.651C427.518 175.897 425.427 170.693 425.427 164.039ZM438.401 164.324C438.401 167.271 439.019 169.647 440.255 171.453C441.491 173.212 443.201 174.352 445.388 174.875C447.574 175.35 449.855 175.588 452.231 175.588C455.891 175.588 459.36 175.231 462.64 174.519C465.919 173.806 469.293 171.928 472.763 168.887V147.856C463.162 148.569 456.319 149.449 452.231 150.494C448.144 151.492 444.817 153.251 442.251 155.77C439.685 158.241 438.401 161.092 438.401 164.324ZM508.835 184C506.696 184 505.627 182.931 505.627 180.792V91.8232C505.627 90.8727 505.865 89.9697 506.34 89.1143L511.33 80.0605C512.233 78.3971 512.97 77.5654 513.54 77.5654H516.035C517.461 77.5654 518.174 78.3971 518.174 80.0605V180.792C518.174 182.931 517.104 184 514.966 184H508.835ZM535.568 102.018C533.192 102.018 532.907 100.758 534.713 98.2393L544.622 84.3379C545.858 82.5794 547.783 81.7002 550.396 81.7002H558.31C561.114 81.7002 561.446 82.9359 559.308 85.4072L546.618 99.9502C545.43 101.328 543.505 102.018 540.844 102.018H535.568ZM541.628 184C539.489 184 538.42 182.931 538.42 180.792V112.354C538.42 110.216 539.489 109.146 541.628 109.146H547.759C549.897 109.146 550.967 110.216 550.967 112.354V180.792C550.967 182.931 549.897 184 547.759 184H541.628ZM567.577 118.557C565.438 118.557 564.369 117.725 564.369 116.062V111.642C564.369 109.978 565.438 109.146 567.577 109.146H575.989V102.73C575.989 101.78 576.227 100.877 576.702 100.021L581.692 90.9678C582.595 89.3044 583.332 88.4727 583.902 88.4727H586.397C587.823 88.4727 588.536 89.3044 588.536 90.9678V109.146H603.721C605.859 109.146 606.929 109.978 606.929 111.642V116.062C606.929 117.725 605.859 118.557 603.721 118.557H588.536V163.968C588.536 168.958 589.273 172.214 590.746 173.734C592.267 175.208 594.073 175.944 596.164 175.944C597.78 175.944 599.705 175.469 601.938 174.519C604.22 173.568 605.788 172.76 606.644 172.095C607.499 171.429 608.164 171.643 608.64 172.736L610.992 178.226C611.372 179.176 611.087 179.937 610.137 180.507C608.283 181.6 605.574 182.669 602.01 183.715C598.445 184.713 594.881 185.212 591.316 185.212C586.374 185.212 582.572 183.43 579.91 179.865C577.296 176.301 575.989 171.263 575.989 164.752V118.557H567.577ZM628.458 184C626.319 184 625.25 182.931 625.25 180.792V112.354C625.25 110.216 626.319 109.146 628.458 109.146H634.589C636.728 109.146 637.797 110.216 637.797 112.354V180.792C637.797 182.931 636.728 184 634.589 184H628.458ZM628.458 95.6016C626.319 95.6016 625.25 94.5322 625.25 92.3936V86.2627C625.25 84.124 626.319 83.0547 628.458 83.0547H634.589C636.728 83.0547 637.797 84.124 637.797 86.2627V92.3936C637.797 94.5322 636.728 95.6016 634.589 95.6016H628.458ZM653.979 146.573C653.979 135.405 656.736 126.185 662.249 118.913C667.81 111.594 676.293 107.935 687.699 107.935C695.398 107.935 701.268 109.313 705.308 112.069C709.395 114.778 712.341 117.559 714.147 120.41C715.146 121.979 714.932 123.238 713.506 124.188L709.015 127.111C707.589 128.109 706.163 127.468 704.737 125.187C703.359 123 701.41 121.123 698.892 119.555C696.42 117.986 692.689 117.202 687.699 117.202C681.188 117.202 676.15 119.602 672.586 124.402C669.021 129.202 667.239 136.593 667.239 146.573C667.239 156.554 669.021 163.944 672.586 168.744C676.15 173.544 681.188 175.944 687.699 175.944C692.975 175.944 697.014 174.946 699.818 172.95C702.622 170.907 704.666 168.697 705.949 166.32C707.185 164.087 708.587 163.445 710.155 164.396L714.932 167.247C716.357 168.103 716.571 169.386 715.573 171.097C714.385 173.14 711.676 176.016 707.446 179.723C703.264 183.382 696.682 185.212 687.699 185.212C676.293 185.212 667.81 181.576 662.249 174.305C656.736 166.986 653.979 157.742 653.979 146.573ZM727.122 164.039C727.122 155.579 731.067 149.377 738.956 145.433C746.893 141.488 758.727 139.183 774.458 138.518V133.67C774.458 129.202 773.436 125.353 771.393 122.121C769.396 118.842 765.404 117.202 759.416 117.202C755.614 117.202 752.572 117.582 750.291 118.343C748.01 119.056 745.919 120.03 744.018 121.266C742.164 122.454 740.382 123.998 738.671 125.899C737.388 127.325 736.176 127.396 735.035 126.113L731.328 121.836C730.283 120.648 730.639 119.222 732.397 117.559C734.916 115.182 737.364 113.4 739.74 112.212C742.117 111.024 745.063 110.026 748.58 109.218C752.145 108.362 755.757 107.935 759.416 107.935C769.349 107.935 776.43 110.501 780.66 115.634C784.89 120.719 787.005 127.705 787.005 136.593V180.792C787.005 182.931 785.936 184 783.797 184H777.381C775.527 184 774.601 182.931 774.601 180.792V177.299H774.458C770.703 180.245 767.02 182.313 763.408 183.501C759.844 184.642 755.852 185.212 751.432 185.212C743.637 185.212 737.625 183.358 733.396 179.651C729.213 175.897 727.122 170.693 727.122 164.039ZM740.097 164.324C740.097 167.271 740.715 169.647 741.95 171.453C743.186 173.212 744.897 174.352 747.083 174.875C749.269 175.35 751.55 175.588 753.927 175.588C757.586 175.588 761.056 175.231 764.335 174.519C767.614 173.806 770.989 171.928 774.458 168.887V147.856C764.858 148.569 758.014 149.449 753.927 150.494C749.84 151.492 746.513 153.251 743.946 155.77C741.38 158.241 740.097 161.092 740.097 164.324Z" fill="white"/>
</svg>
